<?xml version="1.0" encoding="UTF-8" standalone="no"?><svg xmlns="http://www.w3.org/2000/svg" xmlns:xlink="http://www.w3.org/1999/xlink" clip-rule="evenodd" stroke-miterlimit="4.00" viewBox="0 0 1024 768"><desc>SVG generated by Keynote</desc><defs></defs><g transform="matrix(1.00, 0.00, -0.00, -1.00, 0.0, 768.0)"><path d="M 0.0 768.0 L 1024.0 768.0 L 1024.0 0.0 L 0.0 0.0 Z M 0.0 768.0 " fill="#FFFFFF"></path><path d="M -0.0 768.0 L 1024.0 768.0 L 1024.0 -0.0 L -0.0 -0.0 Z M -0.0 768.0 " fill="#525252"></path><path d="M 20.1 768.0 L 28.2 768.0 L 28.2 706.6 L 20.1 706.6 Z M 20.1 768.0 " fill="#FFD400"></path><text xml:space="preserve" font-family="Avenir-Light" font-size="24.0" fill="#FFD400" transform="matrix(1.00, 0.00, -0.00, -1.00, 33.0, 709.0)">N</text><text xml:space="preserve" font-family="Avenir-Light" font-size="24.0" fill="#FFD400" transform="matrix(1.00, 0.00, -0.00, -1.00, 51.7, 709.0)">e</text><text xml:space="preserve" font-family="Avenir-Light" font-size="24.0" fill="#FFD400" transform="matrix(1.00, 0.00, -0.00, -1.00, 65.0, 709.0)">w</text><text xml:space="preserve" font-family="Avenir-Light" font-size="24.0" fill="#FFD400" transform="matrix(1.00, 0.00, -0.00, -1.00, 81.9, 709.0)">e</text><text xml:space="preserve" font-family="Avenir-Light" font-size="24.0" fill="#FFD400" transform="matrix(1.00, 0.00, -0.00, -1.00, 95.3, 709.0)">g</text><text xml:space="preserve" font-family="Avenir-Light" font-size="24.0" fill="#FFD400" transform="matrix(1.00, 0.00, -0.00, -1.00, 109.9, 709.0)">g</text><text xml:space="preserve" font-family="Avenir-Light" font-size="24.0" fill="#FFD400" transform="matrix(1.00, 0.00, -0.00, -1.00, 124.6, 709.0)">-</text><text xml:space="preserve" font-family="Avenir-Light" font-size="24.0" fill="#FFD400" transform="matrix(1.00, 0.00, -0.00, -1.00, 132.6, 709.0)">M</text><text xml:space="preserve" font-family="Avenir-Light" font-size="24.0" fill="#FFD400" transform="matrix(1.00, 0.00, -0.00, -1.00, 153.9, 709.0)">a</text><text xml:space="preserve" font-family="Avenir-Light" font-size="24.0" fill="#FFD400" transform="matrix(1.00, 0.00, -0.00, -1.00, 166.4, 709.0)">r</text><text xml:space="preserve" font-family="Avenir-Light" font-size="24.0" fill="#FFD400" transform="matrix(1.00, 0.00, -0.00, -1.00, 174.4, 709.0)">k</text><text xml:space="preserve" font-family="Avenir-Light" font-size="24.0" fill="#FFD400" transform="matrix(1.00, 0.00, -0.00, -1.00, 185.9, 709.0)">e</text><text xml:space="preserve" font-family="Avenir-Light" font-size="24.0" fill="#FFD400" transform="matrix(1.00, 0.00, -0.00, -1.00, 199.2, 709.0)">t</text><text xml:space="preserve" font-family="Avenir-Light" font-size="24.0" fill="#FFD400" transform="matrix(1.00, 0.00, -0.00, -1.00, 207.3, 709.0)">i</text><text xml:space="preserve" font-family="Avenir-Light" font-size="24.0" fill="#FFD400" transform="matrix(1.00, 0.00, -0.00, -1.00, 213.0, 709.0)">n</text><text xml:space="preserve" font-family="Avenir-Light" font-size="24.0" fill="#FFD400" transform="matrix(1.00, 0.00, -0.00, -1.00, 226.4, 709.0)">g</text><text xml:space="preserve" font-family="Avenir-Light" font-size="24.0" fill="#FFD400" transform="matrix(1.00, 0.00, -0.00, -1.00, 241.0, 709.0)"> </text><text xml:space="preserve" font-family="Avenir-Light" font-size="24.0" fill="#FFD400" transform="matrix(1.00, 0.00, -0.00, -1.00, 247.3, 709.0)">C</text><text xml:space="preserve" font-family="Avenir-Light" font-size="24.0" fill="#FFD400" transform="matrix(1.00, 0.00, -0.00, -1.00, 264.2, 709.0)">a</text><text xml:space="preserve" font-family="Avenir-Light" font-size="24.0" fill="#FFD400" transform="matrix(1.00, 0.00, -0.00, -1.00, 276.6, 709.0)">m</text><text xml:space="preserve" font-family="Avenir-Light" font-size="24.0" fill="#FFD400" transform="matrix(1.00, 0.00, -0.00, -1.00, 297.1, 709.0)">p</text><text xml:space="preserve" font-family="Avenir-Light" font-size="24.0" fill="#FFD400" transform="matrix(1.00, 0.00, -0.00, -1.00, 311.7, 709.0)">a</text><text xml:space="preserve" font-family="Avenir-Light" font-size="24.0" fill="#FFD400" transform="matrix(1.00, 0.00, -0.00, -1.00, 324.2, 709.0)">i</text><text xml:space="preserve" font-family="Avenir-Light" font-size="24.0" fill="#FFD400" transform="matrix(1.00, 0.00, -0.00, -1.00, 330.0, 709.0)">g</text><text xml:space="preserve" font-family="Avenir-Light" font-size="24.0" fill="#FFD400" transform="matrix(1.00, 0.00, -0.00, -1.00, 344.6, 709.0)">n</text><text xml:space="preserve" font-family="Avenir-Light" font-size="24.0" fill="#FFD400" transform="matrix(1.00, 0.00, -0.00, -1.00, 358.0, 709.0)">:</text><text xml:space="preserve" font-family="Avenir-Light" font-size="24.0" fill="#FFD400" transform="matrix(1.00, 0.00, -0.00, -1.00, 364.2, 709.0)"> </text><text xml:space="preserve" font-family="Avenir-Light" font-size="24.0" fill="#FFD400" transform="matrix(1.00, 0.00, -0.00, -1.00, 370.4, 709.0)">B</text><text xml:space="preserve" font-family="Avenir-Light" font-size="24.0" fill="#FFD400" transform="matrix(1.00, 0.00, -0.00, -1.00, 385.6, 709.0)">a</text><text xml:space="preserve" font-family="Avenir-Light" font-size="24.0" fill="#FFD400" transform="matrix(1.00, 0.00, -0.00, -1.00, 398.0, 709.0)">n</text><text xml:space="preserve" font-family="Avenir-Light" font-size="24.0" fill="#FFD400" transform="matrix(1.00, 0.00, -0.00, -1.00, 411.4, 709.0)">n</text><text xml:space="preserve" font-family="Avenir-Light" font-size="24.0" fill="#FFD400" transform="matrix(1.00, 0.00, -0.00, -1.00, 424.7, 709.0)">e</text><text xml:space="preserve" font-family="Avenir-Light" font-size="24.0" fill="#FFD400" transform="matrix(1.00, 0.00, -0.00, -1.00, 438.0, 709.0)">r</text><text xml:space="preserve" font-family="Avenir-Light" font-size="24.0" fill="#FFD400" transform="matrix(1.00, 0.00, -0.00, -1.00, 446.0, 709.0)"> </text><g><clipPath id="clip-36"><path d="M 61.5 408.8 L 702.4 408.8 L 702.4 654.2 L 61.5 654.2 Z M 61.5 408.8 "></path></clipPath><g clip-path="url(#clip-36)"><image xlink:href="B82AF634D241ADE497FAC4F96BE1705E.jpeg" width="640.00" height="244.00" transform="matrix(1.00, 0.00, -0.00, -1.00, 62.0, 654.0)"></image><path d="M 0.0 -0.3 L 640.0 -0.3 L 640.0 244.7 L 0.0 244.7 Z M 0.0 -0.3 " fill="none" stroke="#7E7E7E" stroke-width="1.00" stroke-linejoin="round" transform="matrix(1.00, 0.00, 0.00, -1.00, 62.0, 653.7)"></path></g></g><g><clipPath id="clip-37"><path d="M 61.5 73.0 L 396.6 73.0 L 396.6 299.5 L 61.5 299.5 Z M 61.5 73.0 "></path></clipPath><g clip-path="url(#clip-37)"><image xlink:href="4017E9D605C8CA043A5696E5054A89C3.jpeg" width="335.00" height="226.00" transform="matrix(1.00, 0.00, -0.00, -1.00, 62.0, 299.0)"></image><path d="M 0.0 0.0 L 334.0 0.0 L 334.0 226.0 L 0.0 226.0 Z M 0.0 0.0 " fill="none" stroke="#7E7E7E" stroke-width="1.00" stroke-linejoin="round" transform="matrix(1.00, 0.00, 0.00, -1.00, 62.0, 299.0)"></path></g></g><g><clipPath id="clip-38"><path d="M 408.4 73.0 L 680.1 73.0 L 680.1 299.5 L 408.4 299.5 Z M 408.4 73.0 "></path></clipPath><g clip-path="url(#clip-38)"><image xlink:href="8E26B04E5F239529172396D08278D191.jpeg" width="271.00" height="225.00" transform="matrix(1.00, 0.00, -0.00, -1.00, 409.0, 299.0)"></image><path d="M 0.1 0.0 L 271.1 0.0 L 271.1 226.0 L 0.1 226.0 Z M 0.1 0.0 " fill="none" stroke="#7E7E7E" stroke-width="1.00" stroke-linejoin="round" transform="matrix(1.00, 0.00, 0.00, -1.00, 408.9, 299.0)"></path></g></g><g><clipPath id="clip-39"><path d="M 718.5 408.5 L 964.2 408.5 L 964.2 654.2 L 718.5 654.2 Z M 718.5 408.5 "></path></clipPath><g clip-path="url(#clip-39)"><image xlink:href="A3E959EA7378AE0C9158AF3417941327.png" width="245.00" height="245.00" transform="matrix(1.00, 0.00, -0.00, -1.00, 719.0, 654.0)"></image><path d="M -0.0 -0.3 L 245.0 -0.3 L 245.0 244.7 L -0.0 244.7 Z M -0.0 -0.3 " fill="none" stroke="#7E7E7E" stroke-width="1.00" stroke-linejoin="round" transform="matrix(1.00, 0.00, 0.00, -1.00, 719.0, 653.7)"></path></g></g><g><clipPath id="clip-40"><path d="M 59.8 320.4 L 964.2 320.4 L 964.2 382.9 L 59.8 382.9 Z M 59.8 320.4 "></path></clipPath><g clip-path="url(#clip-40)"><image xlink:href="C1569A059DC480C5AA5751654945962D.jpeg" width="904.00" height="61.00" transform="matrix(1.00, 0.00, -0.00, -1.00, 60.0, 382.0)"></image><path d="M -0.3 0.4 L 903.7 0.4 L 903.7 61.4 L -0.3 61.4 Z M -0.3 0.4 " fill="none" stroke="#7E7E7E" stroke-width="1.00" stroke-linejoin="round" transform="matrix(1.00, 0.00, 0.00, -1.00, 60.3, 382.4)"></path></g></g><g><clipPath id="clip-41"><path d="M 692.2 72.7 L 964.2 72.7 L 964.2 299.5 L 692.2 299.5 Z M 692.2 72.7 "></path></clipPath><g clip-path="url(#clip-41)"><image xlink:href="CBC401F034A9737512321EED8BBBF6A7.jpeg" width="272.00" height="226.00" transform="matrix(1.00, 0.00, -0.00, -1.00, 693.0, 299.0)"></image><path d="M 0.3 0.0 L 271.3 0.0 L 271.3 226.0 L 0.3 226.0 Z M 0.3 0.0 " fill="none" stroke="#7E7E7E" stroke-width="1.00" stroke-linejoin="round" transform="matrix(1.00, 0.00, 0.00, -1.00, 692.7, 299.0)"></path></g></g></g></svg>