<?xml version="1.0" encoding="UTF-8" standalone="no"?><svg xmlns="http://www.w3.org/2000/svg" xmlns:xlink="http://www.w3.org/1999/xlink" clip-rule="evenodd" stroke-miterlimit="4.00" viewBox="0 0 1024 768"><desc>SVG generated by Keynote</desc><defs></defs><g transform="matrix(1.00, 0.00, -0.00, -1.00, 0.0, 768.0)"><path d="M 0.0 768.0 L 1024.0 768.0 L 1024.0 0.0 L 0.0 0.0 Z M 0.0 768.0 " fill="#FFFFFF"></path><path d="M -0.0 768.0 L 1024.0 768.0 L 1024.0 -0.0 L -0.0 -0.0 Z M -0.0 768.0 " fill="#525252"></path><path d="M 20.1 768.0 L 28.2 768.0 L 28.2 706.6 L 20.1 706.6 Z M 20.1 768.0 " fill="#FFD400"></path><text xml:space="preserve" font-family="Avenir-Light" font-size="24.0" fill="#FFD400" transform="matrix(1.00, 0.00, -0.00, -1.00, 34.0, 710.0)">L</text><text xml:space="preserve" font-family="Avenir-Light" font-size="24.0" fill="#FFD400" transform="matrix(1.00, 0.00, -0.00, -1.00, 46.0, 710.0)">e</text><text xml:space="preserve" font-family="Avenir-Light" font-size="24.0" fill="#FFD400" transform="matrix(1.00, 0.00, -0.00, -1.00, 59.3, 710.0)">a</text><text xml:space="preserve" font-family="Avenir-Light" font-size="24.0" fill="#FFD400" transform="matrix(1.00, 0.00, -0.00, -1.00, 71.8, 710.0)">l</text><text xml:space="preserve" font-family="Avenir-Light" font-size="24.0" fill="#FFD400" transform="matrix(1.00, 0.00, -0.00, -1.00, 77.6, 710.0)">e</text><text xml:space="preserve" font-family="Avenir-Light" font-size="24.0" fill="#FFD400" transform="matrix(1.00, 0.00, -0.00, -1.00, 90.9, 710.0)">a</text><text xml:space="preserve" font-family="Avenir-Light" font-size="24.0" fill="#FFD400" transform="matrix(1.00, 0.00, -0.00, -1.00, 103.4, 710.0)">-</text><text xml:space="preserve" font-family="Avenir-Light" font-size="24.0" fill="#FFD400" transform="matrix(1.00, 0.00, -0.00, -1.00, 111.4, 710.0)">P</text><text xml:space="preserve" font-family="Avenir-Light" font-size="24.0" fill="#FFD400" transform="matrix(1.00, 0.00, -0.00, -1.00, 125.1, 710.0)">o</text><text xml:space="preserve" font-family="Avenir-Light" font-size="24.0" fill="#FFD400" transform="matrix(1.00, 0.00, -0.00, -1.00, 139.4, 710.0)">s</text><text xml:space="preserve" font-family="Avenir-Light" font-size="24.0" fill="#FFD400" transform="matrix(1.00, 0.00, -0.00, -1.00, 149.6, 710.0)">t</text><text xml:space="preserve" font-family="Avenir-Light" font-size="24.0" fill="#FFD400" transform="matrix(1.00, 0.00, -0.00, -1.00, 157.6, 710.0)">e</text><text xml:space="preserve" font-family="Avenir-Light" font-size="24.0" fill="#FFD400" transform="matrix(1.00, 0.00, -0.00, -1.00, 170.9, 710.0)">r</text><g><clipPath id="clip-30"><path d="M 72.0 632.0 L 494.0 632.0 L 494.0 112.0 L 72.0 112.0 Z M 72.2 632.3 "></path></clipPath><g clip-path="url(#clip-30)"><image xlink:href="82BD5B91D57CC08AFA3DB10E00F4DDD4.jpeg" width="449.00" height="520.00" transform="matrix(1.00, 0.00, -0.00, -1.00, 59.0, 632.0)"></image></g></g><g><clipPath id="clip-31"><path d="M 530.0 632.0 L 952.0 632.0 L 952.0 112.0 L 530.0 112.0 Z M 530.4 632.3 "></path></clipPath><g clip-path="url(#clip-31)"><image xlink:href="760C608C34AD119B4D35C55F809CD2FE.jpeg" width="449.00" height="520.00" transform="matrix(1.00, 0.00, -0.00, -1.00, 517.0, 632.0)"></image></g></g></g></svg>