<?xml version="1.0" encoding="UTF-8" standalone="no"?><svg xmlns="http://www.w3.org/2000/svg" xmlns:xlink="http://www.w3.org/1999/xlink" clip-rule="evenodd" stroke-miterlimit="4.00" viewBox="0 0 1024 768"><desc>SVG generated by Keynote</desc><defs></defs><g transform="matrix(1.00, 0.00, -0.00, -1.00, 0.0, 768.0)"><path d="M 0.0 768.0 L 1024.0 768.0 L 1024.0 0.0 L 0.0 0.0 Z M 0.0 768.0 " fill="#FFFFFF"></path><path d="M -0.0 768.0 L 1024.0 768.0 L 1024.0 -0.0 L -0.0 -0.0 Z M -0.0 768.0 " fill="#525252"></path><path d="M 20.1 768.0 L 28.2 768.0 L 28.2 706.6 L 20.1 706.6 Z M 20.1 768.0 " fill="#FFD400"></path><text xml:space="preserve" font-family="Avenir-Light" font-size="24.0" fill="#FFD400" transform="matrix(1.00, 0.00, -0.00, -1.00, 34.0, 710.0)">R</text><text xml:space="preserve" font-family="Avenir-Light" font-size="24.0" fill="#FFD400" transform="matrix(1.00, 0.00, -0.00, -1.00, 48.2, 710.0)">o</text><text xml:space="preserve" font-family="Avenir-Light" font-size="24.0" fill="#FFD400" transform="matrix(1.00, 0.00, -0.00, -1.00, 62.5, 710.0)">s</text><text xml:space="preserve" font-family="Avenir-Light" font-size="24.0" fill="#FFD400" transform="matrix(1.00, 0.00, -0.00, -1.00, 72.7, 710.0)">e</text><text xml:space="preserve" font-family="Avenir-Light" font-size="24.0" fill="#FFD400" transform="matrix(1.00, 0.00, -0.00, -1.00, 86.1, 710.0)">w</text><text xml:space="preserve" font-family="Avenir-Light" font-size="24.0" fill="#FFD400" transform="matrix(1.00, 0.00, -0.00, -1.00, 103.0, 710.0)">i</text><text xml:space="preserve" font-family="Avenir-Light" font-size="24.0" fill="#FFD400" transform="matrix(1.00, 0.00, -0.00, -1.00, 108.7, 710.0)">l</text><text xml:space="preserve" font-family="Avenir-Light" font-size="24.0" fill="#FFD400" transform="matrix(1.00, 0.00, -0.00, -1.00, 114.5, 710.0)">l</text><text xml:space="preserve" font-family="Avenir-Light" font-size="24.0" fill="#FFD400" transform="matrix(1.00, 0.00, -0.00, -1.00, 120.3, 710.0)">-</text><text xml:space="preserve" font-family="Avenir-Light" font-size="24.0" fill="#FFD400" transform="matrix(1.00, 0.00, -0.00, -1.00, 128.2, 710.0)">B</text><text xml:space="preserve" font-family="Avenir-Light" font-size="24.0" fill="#FFD400" transform="matrix(1.00, 0.00, -0.00, -1.00, 143.4, 710.0)">r</text><text xml:space="preserve" font-family="Avenir-Light" font-size="24.0" fill="#FFD400" transform="matrix(1.00, 0.00, -0.00, -1.00, 150.9, 710.0)">o</text><text xml:space="preserve" font-family="Avenir-Light" font-size="24.0" fill="#FFD400" transform="matrix(1.00, 0.00, -0.00, -1.00, 165.2, 710.0)">c</text><text xml:space="preserve" font-family="Avenir-Light" font-size="24.0" fill="#FFD400" transform="matrix(1.00, 0.00, -0.00, -1.00, 176.7, 710.0)">h</text><text xml:space="preserve" font-family="Avenir-Light" font-size="24.0" fill="#FFD400" transform="matrix(1.00, 0.00, -0.00, -1.00, 190.1, 710.0)">u</text><text xml:space="preserve" font-family="Avenir-Light" font-size="24.0" fill="#FFD400" transform="matrix(1.00, 0.00, -0.00, -1.00, 203.4, 710.0)">r</text><text xml:space="preserve" font-family="Avenir-Light" font-size="24.0" fill="#FFD400" transform="matrix(1.00, 0.00, -0.00, -1.00, 211.0, 710.0)">e</text><text xml:space="preserve" font-family="Avenir-Light" font-size="24.0" fill="#FFD400" transform="matrix(1.00, 0.00, -0.00, -1.00, 224.3, 710.0)">s</text><image xlink:href="../../5901ECF8-76F9-4F3F-A2A3-ED8C6F41C2FC/assets/E3E79071E7B4A0951D6DEE5FABE2B27A.jpeg" width="706.00" height="336.00" transform="matrix(1.00, 0.00, -0.00, -1.00, 159.0, 666.0)"></image><image xlink:href="../../5901ECF8-76F9-4F3F-A2A3-ED8C6F41C2FC/assets/6E26CB22D8388401B6EEC0B9D9AC1962.jpeg" width="706.00" height="249.00" transform="matrix(1.00, 0.00, -0.00, -1.00, 159.0, 311.0)"></image></g></svg>