<?xml version="1.0" encoding="UTF-8" standalone="no"?><svg xmlns="http://www.w3.org/2000/svg" xmlns:xlink="http://www.w3.org/1999/xlink" clip-rule="evenodd" stroke-miterlimit="4.00" viewBox="0 0 1024 768"><desc>SVG generated by Keynote</desc><defs></defs><g transform="matrix(1.00, 0.00, -0.00, -1.00, 0.0, 768.0)"><path d="M 0.0 768.0 L 1024.0 768.0 L 1024.0 0.0 L 0.0 0.0 Z M 0.0 768.0 " fill="#FFFFFF"></path><path d="M -0.0 768.0 L 1024.0 768.0 L 1024.0 -0.0 L -0.0 -0.0 Z M -0.0 768.0 " fill="#525252"></path><path d="M 20.1 768.0 L 28.2 768.0 L 28.2 706.6 L 20.1 706.6 Z M 20.1 768.0 " fill="#FFD400"></path><text xml:space="preserve" font-family="Avenir-Light" font-size="24.0" fill="#FFD400" transform="matrix(1.00, 0.00, -0.00, -1.00, 34.0, 710.0)">L</text><text xml:space="preserve" font-family="Avenir-Light" font-size="24.0" fill="#FFD400" transform="matrix(1.00, 0.00, -0.00, -1.00, 46.0, 710.0)">I</text><text xml:space="preserve" font-family="Avenir-Light" font-size="24.0" fill="#FFD400" transform="matrix(1.00, 0.00, -0.00, -1.00, 52.2, 710.0)">S</text><text xml:space="preserve" font-family="Avenir-Light" font-size="24.0" fill="#FFD400" transform="matrix(1.00, 0.00, -0.00, -1.00, 65.6, 710.0)">A</text><text xml:space="preserve" font-family="Avenir-Light" font-size="24.0" fill="#FFD400" transform="matrix(1.00, 0.00, -0.00, -1.00, 82.0, 710.0)">.</text><text xml:space="preserve" font-family="Avenir-Light" font-size="24.0" fill="#FFD400" transform="matrix(1.00, 0.00, -0.00, -1.00, 88.3, 710.0)">L</text><text xml:space="preserve" font-family="Avenir-Light" font-size="24.0" fill="#FFD400" transform="matrix(1.00, 0.00, -0.00, -1.00, 100.3, 710.0)">I</text><text xml:space="preserve" font-family="Avenir-Light" font-size="24.0" fill="#FFD400" transform="matrix(1.00, 0.00, -0.00, -1.00, 106.5, 710.0)">S</text><text xml:space="preserve" font-family="Avenir-Light" font-size="24.0" fill="#FFD400" transform="matrix(1.00, 0.00, -0.00, -1.00, 119.8, 710.0)">A</text><text xml:space="preserve" font-family="Avenir-Light" font-size="24.0" fill="#FFD400" transform="matrix(1.00, 0.00, -0.00, -1.00, 136.3, 710.0)">-</text><text xml:space="preserve" font-family="Avenir-Light" font-size="24.0" fill="#FFD400" transform="matrix(1.00, 0.00, -0.00, -1.00, 144.3, 710.0)">B</text><text xml:space="preserve" font-family="Avenir-Light" font-size="24.0" fill="#FFD400" transform="matrix(1.00, 0.00, -0.00, -1.00, 159.4, 710.0)">r</text><text xml:space="preserve" font-family="Avenir-Light" font-size="24.0" fill="#FFD400" transform="matrix(1.00, 0.00, -0.00, -1.00, 167.4, 710.0)">a</text><text xml:space="preserve" font-family="Avenir-Light" font-size="24.0" fill="#FFD400" transform="matrix(1.00, 0.00, -0.00, -1.00, 179.8, 710.0)">n</text><text xml:space="preserve" font-family="Avenir-Light" font-size="24.0" fill="#FFD400" transform="matrix(1.00, 0.00, -0.00, -1.00, 193.2, 710.0)">d</text><text xml:space="preserve" font-family="Avenir-Light" font-size="24.0" fill="#FFD400" transform="matrix(1.00, 0.00, -0.00, -1.00, 207.9, 710.0)"> </text><text xml:space="preserve" font-family="Avenir-Light" font-size="24.0" fill="#FFD400" transform="matrix(1.00, 0.00, -0.00, -1.00, 214.1, 710.0)">I</text><text xml:space="preserve" font-family="Avenir-Light" font-size="24.0" fill="#FFD400" transform="matrix(1.00, 0.00, -0.00, -1.00, 220.3, 710.0)">d</text><text xml:space="preserve" font-family="Avenir-Light" font-size="24.0" fill="#FFD400" transform="matrix(1.00, 0.00, -0.00, -1.00, 235.0, 710.0)">e</text><text xml:space="preserve" font-family="Avenir-Light" font-size="24.0" fill="#FFD400" transform="matrix(1.00, 0.00, -0.00, -1.00, 248.3, 710.0)">n</text><text xml:space="preserve" font-family="Avenir-Light" font-size="24.0" fill="#FFD400" transform="matrix(1.00, 0.00, -0.00, -1.00, 261.7, 710.0)">t</text><text xml:space="preserve" font-family="Avenir-Light" font-size="24.0" fill="#FFD400" transform="matrix(1.00, 0.00, -0.00, -1.00, 269.7, 710.0)">i</text><text xml:space="preserve" font-family="Avenir-Light" font-size="24.0" fill="#FFD400" transform="matrix(1.00, 0.00, -0.00, -1.00, 275.5, 710.0)">t</text><text xml:space="preserve" font-family="Avenir-Light" font-size="24.0" fill="#FFD400" transform="matrix(1.00, 0.00, -0.00, -1.00, 283.5, 710.0)">y</text><image xlink:href="08347B48B805A77EE14F343C64653332.jpeg" width="400.00" height="283.00" transform="matrix(1.00, 0.00, -0.00, -1.00, 536.0, 658.0)"></image><path d="M -0.2 0.2 L 398.8 0.2 L 398.8 282.2 L -0.2 282.2 Z M -0.2 0.2 " fill="none" stroke="#D8D8D8" stroke-width="0.25" stroke-linejoin="round" transform="matrix(1.00, 0.00, 0.00, -1.00, 536.2, 658.2)"></path><image xlink:href="88EF64EE81823771492DC0AF844CEC92.jpeg" width="400.00" height="283.00" transform="matrix(1.00, 0.00, -0.00, -1.00, 97.0, 356.0)"></image><path d="M 0.3 -0.2 L 399.3 -0.2 L 399.3 281.8 L 0.3 281.8 Z M 0.3 -0.2 " fill="none" stroke="#D8D8D8" stroke-width="0.25" stroke-linejoin="round" transform="matrix(1.00, 0.00, 0.00, -1.00, 96.7, 355.8)"></path><image xlink:href="A6B6EB352FFE639536AC5B3160296783.jpeg" width="400.00" height="283.00" transform="matrix(1.00, 0.00, -0.00, -1.00, 536.0, 356.0)"></image><path d="M -0.2 -0.2 L 398.8 -0.2 L 398.8 281.8 L -0.2 281.8 Z M -0.2 -0.2 " fill="none" stroke="#D8D8D8" stroke-width="0.25" stroke-linejoin="round" transform="matrix(1.00, 0.00, 0.00, -1.00, 536.2, 355.8)"></path><image xlink:href="FFC203A5AB20F88076567E393FFA5D38.jpeg" width="400.00" height="283.00" transform="matrix(1.00, 0.00, -0.00, -1.00, 97.0, 658.0)"></image><path d="M 0.3 0.2 L 399.3 0.2 L 399.3 282.2 L 0.3 282.2 Z M 0.3 0.2 " fill="none" stroke="#D8D8D8" stroke-width="0.25" stroke-linejoin="round" transform="matrix(1.00, 0.00, 0.00, -1.00, 96.7, 658.2)"></path></g></svg>