<?xml version="1.0" encoding="UTF-8" standalone="no"?><svg xmlns="http://www.w3.org/2000/svg" xmlns:xlink="http://www.w3.org/1999/xlink" clip-rule="evenodd" stroke-miterlimit="4.00" viewBox="0 0 1024 768"><desc>SVG generated by Keynote</desc><defs></defs><g transform="matrix(1.00, 0.00, -0.00, -1.00, 0.0, 768.0)"><path d="M 0.0 768.0 L 1024.0 768.0 L 1024.0 0.0 L 0.0 0.0 Z M 0.0 768.0 " fill="#FFFFFF"></path><path d="M -0.0 768.0 L 1024.0 768.0 L 1024.0 -0.0 L -0.0 -0.0 Z M -0.0 768.0 " fill="#525252"></path><path d="M 60.4 652.6 L 963.6 652.6 L 963.6 60.9 L 60.4 60.9 Z M 60.4 652.6 " fill="#FFFFFF"></path><path d="M 20.1 768.0 L 28.2 768.0 L 28.2 706.6 L 20.1 706.6 Z M 20.1 768.0 " fill="#FFD400"></path><text xml:space="preserve" font-family="Avenir-Light" font-size="24.0" fill="#FFD400" transform="matrix(1.00, 0.00, -0.00, -1.00, 33.0, 709.0)">N</text><text xml:space="preserve" font-family="Avenir-Light" font-size="24.0" fill="#FFD400" transform="matrix(1.00, 0.00, -0.00, -1.00, 51.7, 709.0)">e</text><text xml:space="preserve" font-family="Avenir-Light" font-size="24.0" fill="#FFD400" transform="matrix(1.00, 0.00, -0.00, -1.00, 65.0, 709.0)">w</text><text xml:space="preserve" font-family="Avenir-Light" font-size="24.0" fill="#FFD400" transform="matrix(1.00, 0.00, -0.00, -1.00, 81.9, 709.0)">e</text><text xml:space="preserve" font-family="Avenir-Light" font-size="24.0" fill="#FFD400" transform="matrix(1.00, 0.00, -0.00, -1.00, 95.3, 709.0)">g</text><text xml:space="preserve" font-family="Avenir-Light" font-size="24.0" fill="#FFD400" transform="matrix(1.00, 0.00, -0.00, -1.00, 109.9, 709.0)">g</text><text xml:space="preserve" font-family="Avenir-Light" font-size="24.0" fill="#FFD400" transform="matrix(1.00, 0.00, -0.00, -1.00, 124.6, 709.0)">-</text><text xml:space="preserve" font-family="Avenir-Light" font-size="24.0" fill="#FFD400" transform="matrix(1.00, 0.00, -0.00, -1.00, 132.6, 709.0)">2</text><text xml:space="preserve" font-family="Avenir-Light" font-size="24.0" fill="#FFD400" transform="matrix(1.00, 0.00, -0.00, -1.00, 145.1, 709.0)">0</text><text xml:space="preserve" font-family="Avenir-Light" font-size="24.0" fill="#FFD400" transform="matrix(1.00, 0.00, -0.00, -1.00, 157.5, 709.0)">1</text><text xml:space="preserve" font-family="Avenir-Light" font-size="24.0" fill="#FFD400" transform="matrix(1.00, 0.00, -0.00, -1.00, 170.0, 709.0)">5</text><text xml:space="preserve" font-family="Avenir-Light" font-size="24.0" fill="#FFD400" transform="matrix(1.00, 0.00, -0.00, -1.00, 182.5, 709.0)"> </text><text xml:space="preserve" font-family="Avenir-Light" font-size="24.0" fill="#FFD400" transform="matrix(1.00, 0.00, -0.00, -1.00, 188.7, 709.0)">H</text><text xml:space="preserve" font-family="Avenir-Light" font-size="24.0" fill="#FFD400" transform="matrix(1.00, 0.00, -0.00, -1.00, 206.1, 709.0)">e</text><text xml:space="preserve" font-family="Avenir-Light" font-size="24.0" fill="#FFD400" transform="matrix(1.00, 0.00, -0.00, -1.00, 219.4, 709.0)">r</text><text xml:space="preserve" font-family="Avenir-Light" font-size="24.0" fill="#FFD400" transform="matrix(1.00, 0.00, -0.00, -1.00, 227.4, 709.0)">s</text><text xml:space="preserve" font-family="Avenir-Light" font-size="24.0" fill="#FFD400" transform="matrix(1.00, 0.00, -0.00, -1.00, 237.6, 709.0)">2</text><text xml:space="preserve" font-family="Avenir-Light" font-size="24.0" fill="#FFD400" transform="matrix(1.00, 0.00, -0.00, -1.00, 250.1, 709.0)">4</text><text xml:space="preserve" font-family="Avenir-Light" font-size="24.0" fill="#FFD400" transform="matrix(1.00, 0.00, -0.00, -1.00, 262.6, 709.0)"> </text><text xml:space="preserve" font-family="Avenir-Light" font-size="24.0" fill="#FFD400" transform="matrix(1.00, 0.00, -0.00, -1.00, 268.8, 709.0)">P</text><text xml:space="preserve" font-family="Avenir-Light" font-size="24.0" fill="#FFD400" transform="matrix(1.00, 0.00, -0.00, -1.00, 282.6, 709.0)">r</text><text xml:space="preserve" font-family="Avenir-Light" font-size="24.0" fill="#FFD400" transform="matrix(1.00, 0.00, -0.00, -1.00, 290.2, 709.0)">o</text><text xml:space="preserve" font-family="Avenir-Light" font-size="24.0" fill="#FFD400" transform="matrix(1.00, 0.00, -0.00, -1.00, 304.4, 709.0)">d</text><text xml:space="preserve" font-family="Avenir-Light" font-size="24.0" fill="#FFD400" transform="matrix(1.00, 0.00, -0.00, -1.00, 319.1, 709.0)">u</text><text xml:space="preserve" font-family="Avenir-Light" font-size="24.0" fill="#FFD400" transform="matrix(1.00, 0.00, -0.00, -1.00, 332.4, 709.0)">c</text><text xml:space="preserve" font-family="Avenir-Light" font-size="24.0" fill="#FFD400" transform="matrix(1.00, 0.00, -0.00, -1.00, 344.0, 709.0)">t</text><text xml:space="preserve" font-family="Avenir-Light" font-size="24.0" fill="#FFD400" transform="matrix(1.00, 0.00, -0.00, -1.00, 352.0, 709.0)"> </text><text xml:space="preserve" font-family="Avenir-Light" font-size="24.0" fill="#FFD400" transform="matrix(1.00, 0.00, -0.00, -1.00, 358.2, 709.0)">D</text><text xml:space="preserve" font-family="Avenir-Light" font-size="24.0" fill="#FFD400" transform="matrix(1.00, 0.00, -0.00, -1.00, 376.0, 709.0)">e</text><text xml:space="preserve" font-family="Avenir-Light" font-size="24.0" fill="#FFD400" transform="matrix(1.00, 0.00, -0.00, -1.00, 389.3, 709.0)">s</text><text xml:space="preserve" font-family="Avenir-Light" font-size="24.0" fill="#FFD400" transform="matrix(1.00, 0.00, -0.00, -1.00, 399.6, 709.0)">i</text><text xml:space="preserve" font-family="Avenir-Light" font-size="24.0" fill="#FFD400" transform="matrix(1.00, 0.00, -0.00, -1.00, 405.3, 709.0)">g</text><text xml:space="preserve" font-family="Avenir-Light" font-size="24.0" fill="#FFD400" transform="matrix(1.00, 0.00, -0.00, -1.00, 420.0, 709.0)">n</text><text xml:space="preserve" font-family="Avenir-Light" font-size="24.0" fill="#FFD400" transform="matrix(1.00, 0.00, -0.00, -1.00, 433.3, 709.0)"> </text><text xml:space="preserve" font-family="TwCenMT-Regular" font-size="24.0" fill="#A7A7A7" transform="matrix(1.00, 0.00, -0.00, -1.00, 322.0, 70.0)">B</text><text xml:space="preserve" font-family="TwCenMT-Regular" font-size="24.0" fill="#A7A7A7" transform="matrix(1.00, 0.00, -0.00, -1.00, 334.0, 70.0)">a</text><text xml:space="preserve" font-family="TwCenMT-Regular" font-size="24.0" fill="#A7A7A7" transform="matrix(1.00, 0.00, -0.00, -1.00, 347.2, 70.0)">c</text><text xml:space="preserve" font-family="TwCenMT-Regular" font-size="24.0" fill="#A7A7A7" transform="matrix(1.00, 0.00, -0.00, -1.00, 356.9, 70.0)">k</text><text xml:space="preserve" font-family="TwCenMT-Regular" font-size="24.0" fill="#A7A7A7" transform="matrix(1.00, 0.00, -0.00, -1.00, 367.5, 70.0)">p</text><text xml:space="preserve" font-family="TwCenMT-Regular" font-size="24.0" fill="#A7A7A7" transform="matrix(1.00, 0.00, -0.00, -1.00, 380.7, 70.0)">a</text><text xml:space="preserve" font-family="TwCenMT-Regular" font-size="24.0" fill="#A7A7A7" transform="matrix(1.00, 0.00, -0.00, -1.00, 393.9, 70.0)">c</text><text xml:space="preserve" font-family="TwCenMT-Regular" font-size="24.0" fill="#A7A7A7" transform="matrix(1.00, 0.00, -0.00, -1.00, 403.6, 70.0)">k</text><text xml:space="preserve" font-family="TwCenMT-Regular" font-size="24.0" fill="#A7A7A7" transform="matrix(1.00, 0.00, -0.00, -1.00, 414.2, 70.0)">/</text><text xml:space="preserve" font-family="TwCenMT-Regular" font-size="24.0" fill="#A7A7A7" transform="matrix(1.00, 0.00, -0.00, -1.00, 426.2, 70.0)">G</text><text xml:space="preserve" font-family="TwCenMT-Regular" font-size="24.0" fill="#A7A7A7" transform="matrix(1.00, 0.00, -0.00, -1.00, 444.7, 70.0)">Y</text><text xml:space="preserve" font-family="TwCenMT-Regular" font-size="24.0" fill="#A7A7A7" transform="matrix(1.00, 0.00, -0.00, -1.00, 457.9, 70.0)">M</text><text xml:space="preserve" font-family="TwCenMT-Regular" font-size="24.0" fill="#A7A7A7" transform="matrix(1.00, 0.00, -0.00, -1.00, 476.4, 70.0)"> </text><text xml:space="preserve" font-family="TwCenMT-Regular" font-size="24.0" fill="#A7A7A7" transform="matrix(1.00, 0.00, -0.00, -1.00, 483.0, 70.0)">B</text><text xml:space="preserve" font-family="TwCenMT-Regular" font-size="24.0" fill="#A7A7A7" transform="matrix(1.00, 0.00, -0.00, -1.00, 495.0, 70.0)">a</text><text xml:space="preserve" font-family="TwCenMT-Regular" font-size="24.0" fill="#A7A7A7" transform="matrix(1.00, 0.00, -0.00, -1.00, 508.3, 70.0)">g</text><text xml:space="preserve" font-family="TwCenMT-Regular" font-size="24.0" fill="#A7A7A7" transform="matrix(1.00, 0.00, -0.00, -1.00, 521.5, 70.0)">/</text><text xml:space="preserve" font-family="TwCenMT-Regular" font-size="24.0" fill="#A7A7A7" transform="matrix(1.00, 0.00, -0.00, -1.00, 533.5, 70.0)">S</text><text xml:space="preserve" font-family="TwCenMT-Regular" font-size="24.0" fill="#A7A7A7" transform="matrix(1.00, 0.00, -0.00, -1.00, 545.5, 70.0)">m</text><text xml:space="preserve" font-family="TwCenMT-Regular" font-size="24.0" fill="#A7A7A7" transform="matrix(1.00, 0.00, -0.00, -1.00, 561.5, 70.0)">a</text><text xml:space="preserve" font-family="TwCenMT-Regular" font-size="24.0" fill="#A7A7A7" transform="matrix(1.00, 0.00, -0.00, -1.00, 574.7, 70.0)">l</text><text xml:space="preserve" font-family="TwCenMT-Regular" font-size="24.0" fill="#A7A7A7" transform="matrix(1.00, 0.00, -0.00, -1.00, 580.0, 70.0)">l</text><text xml:space="preserve" font-family="TwCenMT-Regular" font-size="24.0" fill="#A7A7A7" transform="matrix(1.00, 0.00, -0.00, -1.00, 585.3, 70.0)"> </text><text xml:space="preserve" font-family="TwCenMT-Regular" font-size="24.0" fill="#A7A7A7" transform="matrix(1.00, 0.00, -0.00, -1.00, 591.9, 70.0)">W</text><text xml:space="preserve" font-family="TwCenMT-Regular" font-size="24.0" fill="#A7A7A7" transform="matrix(1.00, 0.00, -0.00, -1.00, 614.0, 70.0)">e</text><text xml:space="preserve" font-family="TwCenMT-Regular" font-size="24.0" fill="#A7A7A7" transform="matrix(1.00, 0.00, -0.00, -1.00, 626.0, 70.0)">e</text><text xml:space="preserve" font-family="TwCenMT-Regular" font-size="24.0" fill="#A7A7A7" transform="matrix(1.00, 0.00, -0.00, -1.00, 638.0, 70.0)">k</text><text xml:space="preserve" font-family="TwCenMT-Regular" font-size="24.0" fill="#A7A7A7" transform="matrix(1.00, 0.00, -0.00, -1.00, 648.0, 70.0)">e</text><text xml:space="preserve" font-family="TwCenMT-Regular" font-size="24.0" fill="#A7A7A7" transform="matrix(1.00, 0.00, -0.00, -1.00, 660.0, 70.0)">n</text><text xml:space="preserve" font-family="TwCenMT-Regular" font-size="24.0" fill="#A7A7A7" transform="matrix(1.00, 0.00, -0.00, -1.00, 670.5, 70.0)">d</text><text xml:space="preserve" font-family="TwCenMT-Regular" font-size="24.0" fill="#A7A7A7" transform="matrix(1.00, 0.00, -0.00, -1.00, 683.7, 70.0)">e</text><text xml:space="preserve" font-family="TwCenMT-Regular" font-size="24.0" fill="#A7A7A7" transform="matrix(1.00, 0.00, -0.00, -1.00, 695.7, 70.0)">r</text><g><clipPath id="clip-62"><path d="M 152.9 108.4 L 378.2 108.4 L 378.2 366.6 L 152.9 366.6 Z M 152.9 108.4 "></path></clipPath><g clip-path="url(#clip-62)"><image xlink:href="7D024ECA19700F2216C7814709D4DA08.jpeg" width="225.00" height="259.00" transform="matrix(1.00, 0.00, -0.00, -1.00, 153.0, 367.0)"></image></g></g><g><clipPath id="clip-63"><path d="M 651.0 144.1 L 855.8 144.1 L 855.8 380.9 L 651.0 380.9 Z M 651.0 144.1 "></path></clipPath><g clip-path="url(#clip-63)"><image xlink:href="C5767CCC0F72F2F962031C7D4124CD38.png" width="204.00" height="237.00" transform="matrix(1.00, 0.00, -0.00, -1.00, 651.0, 381.0)"></image></g></g><g><clipPath id="clip-64"><path d="M 345.1 105.7 L 673.0 105.7 L 673.0 324.0 L 345.1 324.0 Z M 345.1 105.7 "></path></clipPath><g clip-path="url(#clip-64)"><image xlink:href="6B3288FB9586F636F6F11A28182CBB7E.png" width="328.00" height="218.00" transform="matrix(1.00, 0.00, -0.00, -1.00, 345.0, 324.0)"></image></g></g><g><clipPath id="clip-65"><path d="M 651.0 399.2 L 832.9 399.2 L 832.9 601.5 L 651.0 601.5 Z M 651.0 399.2 "></path></clipPath><g clip-path="url(#clip-65)"><image xlink:href="662DC950BA9FB7ABF69F3EFF66E4D862.png" width="182.00" height="203.00" transform="matrix(1.00, 0.00, -0.00, -1.00, 651.0, 601.0)"></image></g></g><g><clipPath id="clip-66"><path d="M 190.8 380.9 L 357.2 380.9 L 357.2 626.6 L 190.8 626.6 Z M 190.8 380.9 "></path></clipPath><g clip-path="url(#clip-66)"><image xlink:href="BCB1F133E6B1FBC7863765D6241EE29F.png" width="166.00" height="246.00" transform="matrix(1.00, 0.00, -0.00, -1.00, 191.0, 627.0)"></image></g></g><g><clipPath id="clip-67"><path d="M 392.6 353.8 L 626.0 353.8 L 626.0 579.1 L 392.6 579.1 Z M 392.6 353.8 "></path></clipPath><g clip-path="url(#clip-67)"><image xlink:href="CB833A30547C6079092C3DA69BC55105.png" width="234.00" height="226.00" transform="matrix(1.00, 0.00, -0.00, -1.00, 393.0, 579.0)"></image></g></g></g></svg>