<?xml version="1.0" encoding="UTF-8" standalone="no"?><svg xmlns="http://www.w3.org/2000/svg" xmlns:xlink="http://www.w3.org/1999/xlink" clip-rule="evenodd" stroke-miterlimit="4.00" viewBox="0 0 1024 768"><desc>SVG generated by Keynote</desc><defs></defs><g transform="matrix(1.00, 0.00, -0.00, -1.00, 0.0, 768.0)"><path d="M 0.0 768.0 L 1024.0 768.0 L 1024.0 0.0 L 0.0 0.0 Z M 0.0 768.0 " fill="#FFFFFF"></path><path d="M -0.0 768.0 L 1024.0 768.0 L 1024.0 -0.0 L -0.0 -0.0 Z M -0.0 768.0 " fill="#525252"></path><path d="M 20.1 768.0 L 28.2 768.0 L 28.2 706.6 L 20.1 706.6 Z M 20.1 768.0 " fill="#FFD400"></path><text xml:space="preserve" font-family="Avenir-Light" font-size="24.0" fill="#FFD400" transform="matrix(1.00, 0.00, -0.00, -1.00, 34.0, 710.0)">C</text><text xml:space="preserve" font-family="Avenir-Light" font-size="24.0" fill="#FFD400" transform="matrix(1.00, 0.00, -0.00, -1.00, 50.9, 710.0)">H</text><text xml:space="preserve" font-family="Avenir-Light" font-size="24.0" fill="#FFD400" transform="matrix(1.00, 0.00, -0.00, -1.00, 68.2, 710.0)">I</text><text xml:space="preserve" font-family="Avenir-Light" font-size="24.0" fill="#FFD400" transform="matrix(1.00, 0.00, -0.00, -1.00, 74.5, 710.0)">Y</text><text xml:space="preserve" font-family="Avenir-Light" font-size="24.0" fill="#FFD400" transform="matrix(1.00, 0.00, -0.00, -1.00, 88.2, 710.0)">I</text><text xml:space="preserve" font-family="Avenir-Light" font-size="24.0" fill="#FFD400" transform="matrix(1.00, 0.00, -0.00, -1.00, 94.5, 710.0)">-</text><text xml:space="preserve" font-family="Avenir-Light" font-size="24.0" fill="#FFD400" transform="matrix(1.00, 0.00, -0.00, -1.00, 102.5, 710.0)">B</text><text xml:space="preserve" font-family="Avenir-Light" font-size="24.0" fill="#FFD400" transform="matrix(1.00, 0.00, -0.00, -1.00, 117.6, 710.0)">o</text><text xml:space="preserve" font-family="Avenir-Light" font-size="24.0" fill="#FFD400" transform="matrix(1.00, 0.00, -0.00, -1.00, 131.8, 710.0)">o</text><text xml:space="preserve" font-family="Avenir-Light" font-size="24.0" fill="#FFD400" transform="matrix(1.00, 0.00, -0.00, -1.00, 146.1, 710.0)">t</text><text xml:space="preserve" font-family="Avenir-Light" font-size="24.0" fill="#FFD400" transform="matrix(1.00, 0.00, -0.00, -1.00, 154.1, 710.0)">h</text><text xml:space="preserve" font-family="Avenir-Light" font-size="24.0" fill="#FFD400" transform="matrix(1.00, 0.00, -0.00, -1.00, 167.5, 710.0)">/</text><text xml:space="preserve" font-family="Avenir-Light" font-size="24.0" fill="#FFD400" transform="matrix(1.00, 0.00, -0.00, -1.00, 176.3, 710.0)">D</text><text xml:space="preserve" font-family="Avenir-Light" font-size="24.0" fill="#FFD400" transform="matrix(1.00, 0.00, -0.00, -1.00, 194.1, 710.0)">M</text><image xlink:href="2DED9038E6484E362A8D1084A85681AE.jpeg" width="285.00" height="315.00" transform="matrix(1.00, 0.00, -0.00, -1.00, 138.0, 352.0)"></image><path d="M 0.5 -0.3 L 285.5 -0.3 L 285.5 314.7 L 0.5 314.7 Z M 0.5 -0.3 " fill="none" stroke="#D9D9D9" stroke-width="0.25" stroke-linejoin="round" transform="matrix(1.00, 0.00, 0.00, -1.00, 137.5, 351.7)"></path><image xlink:href="6426DED9C957C0E1AC0D396490B744B2.jpeg" width="457.00" height="646.00" transform="matrix(1.00, 0.00, -0.00, -1.00, 447.0, 682.0)"></image><path d="M -0.5 0.4 L 456.5 0.4 L 456.5 645.4 L -0.5 645.4 Z M -0.5 0.4 " fill="none" stroke="#D9D9D9" stroke-width="0.25" stroke-linejoin="round" transform="matrix(1.00, 0.00, 0.00, -1.00, 447.5, 682.4)"></path><image xlink:href="EDAEEA5FDC3A8858F5DC1E35F8AC495E.jpeg" width="285.00" height="315.00" transform="matrix(1.00, 0.00, -0.00, -1.00, 138.0, 682.0)"></image><path d="M 0.5 0.4 L 285.5 0.4 L 285.5 314.4 L 0.5 314.4 Z M 0.5 0.4 " fill="none" stroke="#D9D9D9" stroke-width="0.25" stroke-linejoin="round" transform="matrix(1.00, 0.00, 0.00, -1.00, 137.5, 682.4)"></path></g></svg>