<?xml version="1.0" encoding="UTF-8" standalone="no"?><svg xmlns="http://www.w3.org/2000/svg" xmlns:xlink="http://www.w3.org/1999/xlink" clip-rule="evenodd" stroke-miterlimit="4.00" viewBox="0 0 1024 768"><desc>SVG generated by Keynote</desc><defs></defs><g transform="matrix(1.00, 0.00, -0.00, -1.00, 0.0, 768.0)"><path d="M 0.0 768.0 L 1024.0 768.0 L 1024.0 0.0 L 0.0 0.0 Z M 0.0 768.0 " fill="#FFFFFF"></path><path d="M -0.0 768.0 L 1024.0 768.0 L 1024.0 -0.0 L -0.0 -0.0 Z M -0.0 768.0 " fill="#525252"></path><path d="M 20.1 768.0 L 28.2 768.0 L 28.2 706.6 L 20.1 706.6 Z M 20.1 768.0 " fill="#FFD400"></path><text xml:space="preserve" font-family="Avenir-Light" font-size="24.0" fill="#FFD400" transform="matrix(1.00, 0.00, -0.00, -1.00, 33.0, 709.0)">G</text><text xml:space="preserve" font-family="Avenir-Light" font-size="24.0" fill="#FFD400" transform="matrix(1.00, 0.00, -0.00, -1.00, 51.7, 709.0)">e</text><text xml:space="preserve" font-family="Avenir-Light" font-size="24.0" fill="#FFD400" transform="matrix(1.00, 0.00, -0.00, -1.00, 65.0, 709.0)">n</text><text xml:space="preserve" font-family="Avenir-Light" font-size="24.0" fill="#FFD400" transform="matrix(1.00, 0.00, -0.00, -1.00, 78.4, 709.0)">i</text><text xml:space="preserve" font-family="Avenir-Light" font-size="24.0" fill="#FFD400" transform="matrix(1.00, 0.00, -0.00, -1.00, 84.1, 709.0)">u</text><text xml:space="preserve" font-family="Avenir-Light" font-size="24.0" fill="#FFD400" transform="matrix(1.00, 0.00, -0.00, -1.00, 97.5, 709.0)">s</text><text xml:space="preserve" font-family="Avenir-Light" font-size="24.0" fill="#FFD400" transform="matrix(1.00, 0.00, -0.00, -1.00, 107.7, 709.0)">-</text><text xml:space="preserve" font-family="Avenir-Light" font-size="24.0" fill="#FFD400" transform="matrix(1.00, 0.00, -0.00, -1.00, 115.7, 709.0)">2</text><text xml:space="preserve" font-family="Avenir-Light" font-size="24.0" fill="#FFD400" transform="matrix(1.00, 0.00, -0.00, -1.00, 128.2, 709.0)">0</text><text xml:space="preserve" font-family="Avenir-Light" font-size="24.0" fill="#FFD400" transform="matrix(1.00, 0.00, -0.00, -1.00, 140.6, 709.0)">1</text><text xml:space="preserve" font-family="Avenir-Light" font-size="24.0" fill="#FFD400" transform="matrix(1.00, 0.00, -0.00, -1.00, 153.1, 709.0)">4</text><text xml:space="preserve" font-family="Avenir-Light" font-size="24.0" fill="#FFD400" transform="matrix(1.00, 0.00, -0.00, -1.00, 165.6, 709.0)"> </text><text xml:space="preserve" font-family="Avenir-Light" font-size="24.0" fill="#FFD400" transform="matrix(1.00, 0.00, -0.00, -1.00, 171.8, 709.0)">I</text><text xml:space="preserve" font-family="Avenir-Light" font-size="24.0" fill="#FFD400" transform="matrix(1.00, 0.00, -0.00, -1.00, 178.1, 709.0)">F</text><text xml:space="preserve" font-family="Avenir-Light" font-size="24.0" fill="#FFD400" transform="matrix(1.00, 0.00, -0.00, -1.00, 190.1, 709.0)">A</text><text xml:space="preserve" font-family="Avenir-Light" font-size="24.0" fill="#FFD400" transform="matrix(1.00, 0.00, -0.00, -1.00, 206.5, 709.0)"> </text><text xml:space="preserve" font-family="Avenir-Light" font-size="24.0" fill="#FFD400" transform="matrix(1.00, 0.00, -0.00, -1.00, 212.8, 709.0)">B</text><text xml:space="preserve" font-family="Avenir-Light" font-size="24.0" fill="#FFD400" transform="matrix(1.00, 0.00, -0.00, -1.00, 227.9, 709.0)">r</text><text xml:space="preserve" font-family="Avenir-Light" font-size="24.0" fill="#FFD400" transform="matrix(1.00, 0.00, -0.00, -1.00, 235.5, 709.0)">o</text><text xml:space="preserve" font-family="Avenir-Light" font-size="24.0" fill="#FFD400" transform="matrix(1.00, 0.00, -0.00, -1.00, 249.7, 709.0)">c</text><text xml:space="preserve" font-family="Avenir-Light" font-size="24.0" fill="#FFD400" transform="matrix(1.00, 0.00, -0.00, -1.00, 261.3, 709.0)">h</text><text xml:space="preserve" font-family="Avenir-Light" font-size="24.0" fill="#FFD400" transform="matrix(1.00, 0.00, -0.00, -1.00, 274.6, 709.0)">u</text><text xml:space="preserve" font-family="Avenir-Light" font-size="24.0" fill="#FFD400" transform="matrix(1.00, 0.00, -0.00, -1.00, 288.0, 709.0)">r</text><text xml:space="preserve" font-family="Avenir-Light" font-size="24.0" fill="#FFD400" transform="matrix(1.00, 0.00, -0.00, -1.00, 295.5, 709.0)">e</text><text xml:space="preserve" font-family="Avenir-Light" font-size="24.0" fill="#FFD400" transform="matrix(1.00, 0.00, -0.00, -1.00, 308.9, 709.0)">s</text><image xlink:href="../../FC900CE5-B396-43D5-A06D-C7C87064CF10/assets/35930C4EB7F9DF742D665E1D24D145CA.jpeg" width="529.00" height="397.00" transform="matrix(1.00, 0.00, -0.00, -1.00, 48.0, 658.0)"></image><path d="M -0.1 0.2 L 528.9 0.2 L 528.9 397.2 L -0.1 397.2 Z M -0.1 0.2 " fill="none" stroke="#7E7E7E" stroke-width="1.00" stroke-linejoin="round" transform="matrix(1.00, 0.00, 0.00, -1.00, 48.1, 658.2)"></path><image xlink:href="../../FC900CE5-B396-43D5-A06D-C7C87064CF10/assets/41DB7AAD3ED872171D920DFE6C073437.jpeg" width="533.00" height="397.00" transform="matrix(1.00, 0.00, -0.00, -1.00, 439.0, 465.0)"></image><path d="M -0.4 -0.4 L 532.6 -0.4 L 532.6 396.6 L -0.4 396.6 Z M -0.4 -0.4 " fill="none" stroke="#7E7E7E" stroke-width="1.00" stroke-linejoin="round" transform="matrix(1.00, 0.00, 0.00, -1.00, 439.4, 464.6)"></path></g></svg>